<svg width="109" height="81" viewBox="0 0 109 81" fill="none" xmlns="http://www.w3.org/2000/svg">
<g id="615a23a5e0f7a7bbfa2361f5_Comp 2 shapes 1" clip-path="url(#clip0_5771_6787)">
<path id="Vector" d="M119.453 21.0904C119.525 22.7571 118.458 23.9184 116.588 24.1372C113.987 24.4417 111.388 24.7952 108.777 24.973C106.394 25.1356 105.143 23.1889 103.953 21.6652C103.135 20.6177 103.693 19.1138 104.536 17.8618C107.357 13.6726 109.451 9.09846 111.369 4.44112C111.703 3.6291 112.054 2.88251 113.103 2.747C114.242 2.60045 114.467 3.45837 114.992 4.13701C116.562 6.16442 116.901 8.60513 117.505 10.9633C118.357 14.2989 119.166 17.6456 119.453 21.0904Z" fill="white"/>
<path id="Vector_2" d="M113.993 58.381C113.993 60.487 114.562 62.1385 112.585 63.0889C112.116 63.3144 111.701 63.6203 111.209 63.5345C108.998 63.1493 106.84 63.2731 104.82 64.2747C103.241 65.0572 102.354 64.4462 101.182 63.2927C98.9316 61.0775 98.8772 60.1861 100.293 57.4438C102.558 53.061 105.126 48.7971 106.533 44.0067C106.72 43.3032 106.978 42.6207 107.304 41.9701C108.009 40.6576 109.289 40.6338 110.265 41.7449C112.322 44.0875 112.555 47.0336 112.992 49.8851C113.454 52.8932 113.712 55.9318 113.993 58.381Z" fill="white"/>
<path id="Vector_3" d="M84.6558 37.9309C84.6608 39.9042 83.6311 40.8258 81.47 40.4345C79.7001 40.1144 77.9398 40.2923 76.2126 40.3065C74.0785 40.3221 72.6764 39.3838 71.2295 38.1194C69.8953 36.9531 69.8281 35.6001 70.5924 34.2168C73.0239 29.82 75.0336 25.2029 76.5946 20.4272C77.2046 18.5617 78.4684 18.4482 79.7851 19.925C80.6735 20.9088 81.3447 22.0688 81.7549 23.3293C83.2387 28.0794 84.2113 32.9743 84.6558 37.9309Z" fill="white"/>
<path id="Vector_4" d="M49.4233 55.6382C47.9006 55.565 46.591 55.614 45.2675 55.3892C42.1168 54.8557 41.1177 53.9192 41.632 50.8155C42.2893 46.8482 42.751 42.8247 44.0083 38.9744C44.236 38.1458 44.5835 37.355 45.0398 36.6269C45.8885 35.4204 46.9545 35.0579 48.1802 36.2587C49.2533 37.2447 50.1436 38.4127 50.8097 39.7089C52.5671 43.4806 54.0584 47.3706 55.2729 51.3504C55.4322 51.8147 55.4797 52.31 55.4115 52.7961C55.3433 53.2822 55.1613 53.7453 54.8803 54.1477C54.5993 54.5502 54.2273 54.8806 53.7945 55.1122C53.3618 55.3438 52.8804 55.4699 52.3897 55.4803C51.3326 55.5194 50.2769 55.5938 49.4233 55.6382Z" fill="white"/>
<path id="Vector_5" d="M53.9498 15.097C54.1664 18.9384 52.4559 20.6738 48.5992 21.4211C46.5782 21.8123 45.1377 20.942 43.5801 20.2811C41.7661 19.5111 41.0854 18.1356 41.6171 15.9652C42.3011 13.1724 43.5115 10.6104 44.5198 7.96233C45.3443 5.79763 46.1453 3.63187 46.8585 1.42733C47.4254 -0.324771 48.1418 -0.262882 49.5912 0.540254C52.0974 1.92743 52.6003 4.24365 52.9755 6.63883C53.4145 9.44091 53.6346 12.2761 53.9498 15.097Z" fill="white"/>
<path id="Vector_6" d="M22.6861 49.3336C22.7519 52.3139 22.0412 52.8342 19.4938 52.7837C18.044 52.756 16.5839 53.2337 15.1288 53.4855C12.8592 53.8789 9.41791 51.8888 8.81503 49.9599C8.71442 49.6878 8.66912 49.3983 8.68176 49.1085C8.6944 48.8186 8.76474 48.5342 8.88866 48.2719C10.6486 44.269 12.368 40.2483 14.1439 36.2525C14.9193 34.5097 15.8157 34.3674 17.2654 35.6742C20.5253 38.61 21.2022 42.7456 22.3126 46.6649C22.5113 47.5425 22.6362 48.4351 22.6861 49.3336ZM17.6791 45.803C17.11 45.2713 17.9441 43.8788 16.6601 43.5242C16.2112 43.4 15.9291 44.1463 16.0945 44.5795C16.4018 45.3837 16.1191 46.5713 17.2238 46.8854C17.7641 47.0383 17.6794 46.4116 17.6791 45.8016V45.803Z" fill="white"/>
<path id="Vector_7" d="M0 85.6678C0.46239 81.0866 1.93351 76.7736 3.50421 72.5075C4.17503 70.685 5.06922 70.6522 6.62534 71.8673C7.94714 72.8986 8.81387 74.4054 9.0408 76.0665C9.65222 79.9822 10.1523 83.9167 10.6218 87.8527C10.8199 89.5138 9.77315 90.3631 8.10464 90.7071C5.4434 91.2556 3.32459 90.2014 1.2545 88.8423C0.11809 88.0986 0.138006 86.8416 0 85.6678Z" fill="white"/>
<path id="Vector_8" d="M76.8247 83.8699C76.1044 83.8109 75.276 83.4915 74.9648 83.7632C73.8682 84.7218 72.5344 84.0638 71.3279 84.503C70.0414 84.9711 68.0801 81.803 68.2352 80.2209C68.465 77.8759 70.4921 76.3927 70.8196 74.0398C71.1433 71.7162 72.0727 69.4743 72.7759 67.2086C72.8482 66.881 73.0276 66.5868 73.2858 66.3727C73.544 66.1585 73.8662 66.0365 74.2015 66.0259C75.0391 65.9818 75.482 66.3595 75.8647 67.1172C77.9806 71.3142 79.106 75.8741 80.7208 80.2526C81.6115 82.6705 79.3909 83.5228 76.8247 83.8699Z" fill="white"/>
<path id="Vector_9" d="M114.419 93.9484C114.974 96.4083 112.262 97.746 110.471 97.2918C109.637 97.0809 108.961 96.8024 107.95 97.2804C106.709 97.8673 104.831 98.5833 104.509 95.9665C104.484 95.7595 103.946 95.6521 103.717 95.4269C102.294 94.0309 102.251 92.0269 103.553 90.4392C103.864 90.0939 104.111 89.6966 104.284 89.2654C105.267 86.3559 107.427 83.9113 107.643 80.6966C107.699 79.8632 108.008 79.0875 108.959 78.937C109.909 78.7866 110.375 79.4706 110.763 80.2061C110.996 80.528 111.197 80.8715 111.365 81.2319C112.616 85.4114 113.635 89.6566 114.419 93.9484Z" fill="white"/>
</g>
<defs>
<clipPath id="clip0_5771_6787">
<rect width="149" height="179" fill="white"/>
</clipPath>
</defs>
</svg>
